<svg width="36" height="36" viewBox="0 0 36 36" fill="none" xmlns="http://www.w3.org/2000/svg">
<path d="M13.5 31.5V20.4C13.5 19.5599 13.5 19.1399 13.6635 18.819C13.8073 18.5367 14.0368 18.3073 14.319 18.1635C14.6399 18 15.0599 18 15.9 18H20.1C20.9401 18 21.3601 18 21.681 18.1635C21.9632 18.3073 22.1927 18.5367 22.3365 18.819C22.5 19.1399 22.5 19.5599 22.5 20.4V31.5M16.5265 4.146L6.35309 12.0587C5.67303 12.5876 5.33301 12.8521 5.08804 13.1833C4.87105 13.4767 4.7094 13.8072 4.61104 14.1586C4.5 14.5553 4.5 14.986 4.5 15.8476V26.7C4.5 28.3801 4.5 29.2202 4.82698 29.8619C5.1146 30.4264 5.57354 30.8854 6.13803 31.173C6.77976 31.5 7.61984 31.5 9.3 31.5H26.7C28.3802 31.5 29.2202 31.5 29.862 31.173C30.4265 30.8854 30.8854 30.4264 31.173 29.8619C31.5 29.2202 31.5 28.3801 31.5 26.7V15.8476C31.5 14.986 31.5 14.5553 31.389 14.1586C31.2906 13.8072 31.129 13.4767 30.912 13.1833C30.667 12.8521 30.327 12.5876 29.6469 12.0587L19.4735 4.146C18.9465 3.73612 18.683 3.53118 18.392 3.4524C18.1353 3.38289 17.8647 3.38289 17.608 3.4524C17.317 3.53118 17.0535 3.73612 16.5265 4.146Z" stroke="#27316A" stroke-width="4" stroke-linecap="round" stroke-linejoin="round"/>
</svg>
