<svg width="36" height="36" viewBox="0 0 36 36" fill="none" xmlns="http://www.w3.org/2000/svg">
<rect width="36" height="36" rx="8" fill="#27316A"/>
<g clip-path="url(#clip0_36_618)">
<path d="M24 8L28 12M8 28L9.2764 23.3199C9.35968 23.0145 9.40131 22.8619 9.46523 22.7195C9.52199 22.5931 9.59172 22.4729 9.67332 22.3609C9.76521 22.2348 9.87711 22.1229 10.1009 21.8991L20.4343 11.5657C20.6323 11.3677 20.7313 11.2687 20.8455 11.2316C20.9459 11.1989 21.0541 11.1989 21.1545 11.2316C21.2687 11.2687 21.3677 11.3677 21.5657 11.5657L24.4343 14.4343C24.6323 14.6323 24.7313 14.7313 24.7684 14.8455C24.8011 14.9459 24.8011 15.0541 24.7684 15.1545C24.7313 15.2687 24.6323 15.3677 24.4343 15.5657L14.1009 25.8991C13.8771 26.1229 13.7652 26.2348 13.6391 26.3267C13.5271 26.4083 13.4069 26.478 13.2805 26.5348C13.1381 26.5987 12.9855 26.6403 12.6801 26.7236L8 28Z" stroke="white" stroke-width="3" stroke-linecap="round" stroke-linejoin="round"/>
</g>
<defs>
<clipPath id="clip0_36_618">
<rect width="24" height="24" fill="white" transform="translate(6 6)"/>
</clipPath>
</defs>
</svg>
